<mxfile host="app.diagrams.net" modified="2021-01-10T11:07:46.884Z" agent="5.0 (Macintosh; Intel Mac OS X 10_14_6) AppleWebKit/537.36 (KHTML, like Gecko) Chrome/87.0.4280.88 Safari/537.36" etag="oSioNhVHYHRnv57bpO-3" version="14.1.4" type="github">
  <diagram id="38ZjFlmooQbY5nufkzOg" name="脚本解析与字节码生成">
    <mxGraphModel dx="1593" dy="2241" grid="1" gridSize="10" guides="1" tooltips="1" connect="1" arrows="1" fold="1" page="1" pageScale="1" pageWidth="827" pageHeight="1169" math="0" shadow="0">
      <root>
        <mxCell id="0" />
        <mxCell id="1" parent="0" />
        <mxCell id="tPIpaodHMRVidKeAbp10-1" value="&lt;pre style=&quot;background-color: #2b2b2b ; color: #a9b7c6 ; font-family: &amp;#34;menlo&amp;#34; ; font-size: 10.5pt&quot;&gt;RapidLuaLoader&lt;/pre&gt;" style="shape=umlLifeline;perimeter=lifelinePerimeter;whiteSpace=wrap;html=1;container=1;collapsible=0;recursiveResize=0;outlineConnect=0;" vertex="1" parent="1">
          <mxGeometry x="470" y="320" width="100" height="300" as="geometry" />
        </mxCell>
        <mxCell id="tPIpaodHMRVidKeAbp10-3" value="1、词法分析" style="text;align=center;fontStyle=1;verticalAlign=middle;spacingLeft=3;spacingRight=3;strokeColor=none;rotatable=0;points=[[0,0.5],[1,0.5]];portConstraint=eastwest;" vertex="1" parent="1">
          <mxGeometry x="50" y="-160" width="80" height="26" as="geometry" />
        </mxCell>
        <mxCell id="tPIpaodHMRVidKeAbp10-4" value="2、语法分析" style="text;align=center;fontStyle=1;verticalAlign=middle;spacingLeft=3;spacingRight=3;strokeColor=none;rotatable=0;points=[[0,0.5],[1,0.5]];portConstraint=eastwest;" vertex="1" parent="1">
          <mxGeometry x="50" y="390" width="80" height="26" as="geometry" />
        </mxCell>
        <mxCell id="tPIpaodHMRVidKeAbp10-5" value="3、代码生成" style="text;align=center;fontStyle=1;verticalAlign=middle;spacingLeft=3;spacingRight=3;strokeColor=none;rotatable=0;points=[[0,0.5],[1,0.5]];portConstraint=eastwest;" vertex="1" parent="1">
          <mxGeometry x="20" y="1230" width="80" height="26" as="geometry" />
        </mxCell>
        <mxCell id="tPIpaodHMRVidKeAbp10-6" value="load" style="html=1;verticalAlign=bottom;endArrow=block;" edge="1" parent="1">
          <mxGeometry width="80" relative="1" as="geometry">
            <mxPoint x="440" y="400" as="sourcePoint" />
            <mxPoint x="520" y="400" as="targetPoint" />
          </mxGeometry>
        </mxCell>
        <mxCell id="tPIpaodHMRVidKeAbp10-7" value="&lt;pre style=&quot;background-color: #2b2b2b ; color: #a9b7c6 ; font-family: &amp;#34;menlo&amp;#34; ; font-size: 10.5pt&quot;&gt;&lt;pre style=&quot;font-family: &amp;#34;menlo&amp;#34; ; font-size: 10.5pt&quot;&gt;RapidLuaEnvironment&lt;/pre&gt;&lt;/pre&gt;" style="shape=umlLifeline;perimeter=lifelinePerimeter;whiteSpace=wrap;html=1;container=1;collapsible=0;recursiveResize=0;outlineConnect=0;" vertex="1" parent="1">
          <mxGeometry x="620" y="320" width="100" height="300" as="geometry" />
        </mxCell>
        <mxCell id="tPIpaodHMRVidKeAbp10-8" value="&lt;pre style=&quot;background-color: #2b2b2b ; color: #a9b7c6 ; font-family: &amp;#34;menlo&amp;#34; ; font-size: 10.5pt&quot;&gt;&lt;span style=&quot;color: #ffc66d&quot;&gt;getClosure&lt;/span&gt;&lt;/pre&gt;" style="html=1;verticalAlign=bottom;endArrow=block;" edge="1" parent="1">
          <mxGeometry width="80" relative="1" as="geometry">
            <mxPoint x="590" y="400" as="sourcePoint" />
            <mxPoint x="670" y="400" as="targetPoint" />
            <mxPoint as="offset" />
          </mxGeometry>
        </mxCell>
        <mxCell id="tPIpaodHMRVidKeAbp10-9" value="&lt;pre style=&quot;background-color: #2b2b2b ; color: #a9b7c6 ; font-family: &amp;#34;menlo&amp;#34; ; font-size: 10.5pt&quot;&gt;&lt;pre style=&quot;font-family: &amp;#34;menlo&amp;#34; ; font-size: 10.5pt&quot;&gt;Globals&lt;/pre&gt;&lt;/pre&gt;" style="shape=umlLifeline;perimeter=lifelinePerimeter;whiteSpace=wrap;html=1;container=1;collapsible=0;recursiveResize=0;outlineConnect=0;" vertex="1" parent="1">
          <mxGeometry x="800" y="320" width="100" height="300" as="geometry" />
        </mxCell>
        <mxCell id="tPIpaodHMRVidKeAbp10-10" value="&lt;pre style=&quot;background-color: #2b2b2b ; color: #a9b7c6 ; font-family: &amp;#34;menlo&amp;#34; ; font-size: 10.5pt&quot;&gt;&lt;span style=&quot;color: #ffc66d&quot;&gt;compilePrototype&lt;/span&gt;&lt;/pre&gt;" style="html=1;verticalAlign=bottom;endArrow=block;" edge="1" parent="1">
          <mxGeometry width="80" relative="1" as="geometry">
            <mxPoint x="770" y="430" as="sourcePoint" />
            <mxPoint x="850" y="430" as="targetPoint" />
          </mxGeometry>
        </mxCell>
        <mxCell id="tPIpaodHMRVidKeAbp10-11" value="&lt;pre style=&quot;background-color: #2b2b2b ; color: #a9b7c6 ; font-family: &amp;#34;menlo&amp;#34; ; font-size: 10.5pt&quot;&gt;&lt;pre style=&quot;font-family: &amp;#34;menlo&amp;#34; ; font-size: 10.5pt&quot;&gt;&lt;pre style=&quot;font-family: &amp;#34;menlo&amp;#34; ; font-size: 10.5pt&quot;&gt;LuaC&lt;/pre&gt;&lt;/pre&gt;&lt;/pre&gt;" style="shape=umlLifeline;perimeter=lifelinePerimeter;whiteSpace=wrap;html=1;container=1;collapsible=0;recursiveResize=0;outlineConnect=0;" vertex="1" parent="1">
          <mxGeometry x="960" y="320" width="100" height="300" as="geometry" />
        </mxCell>
        <mxCell id="tPIpaodHMRVidKeAbp10-12" value="&lt;pre style=&quot;background-color: #2b2b2b ; color: #a9b7c6 ; font-family: &amp;#34;menlo&amp;#34; ; font-size: 10.5pt&quot;&gt;&lt;pre style=&quot;font-family: &amp;#34;menlo&amp;#34; ; font-size: 10.5pt&quot;&gt;&lt;span style=&quot;color: #ffc66d&quot;&gt;compile&lt;/span&gt;&lt;/pre&gt;&lt;/pre&gt;" style="html=1;verticalAlign=bottom;endArrow=block;" edge="1" parent="1">
          <mxGeometry width="80" relative="1" as="geometry">
            <mxPoint x="930" y="430" as="sourcePoint" />
            <mxPoint x="1010" y="430" as="targetPoint" />
          </mxGeometry>
        </mxCell>
        <mxCell id="tPIpaodHMRVidKeAbp10-13" value="&lt;pre style=&quot;background-color: #2b2b2b ; color: #a9b7c6 ; font-family: &amp;#34;menlo&amp;#34; ; font-size: 10.5pt&quot;&gt;&lt;pre style=&quot;font-family: &amp;#34;menlo&amp;#34; ; font-size: 10.5pt&quot;&gt;&lt;pre style=&quot;font-family: &amp;#34;menlo&amp;#34; ; font-size: 10.5pt&quot;&gt;&lt;pre style=&quot;font-family: &amp;#34;menlo&amp;#34; ; font-size: 10.5pt&quot;&gt;CompileState&lt;/pre&gt;&lt;/pre&gt;&lt;/pre&gt;&lt;/pre&gt;" style="shape=umlLifeline;perimeter=lifelinePerimeter;whiteSpace=wrap;html=1;container=1;collapsible=0;recursiveResize=0;outlineConnect=0;" vertex="1" parent="1">
          <mxGeometry x="1090" y="320" width="100" height="300" as="geometry" />
        </mxCell>
        <mxCell id="tPIpaodHMRVidKeAbp10-14" value="&lt;pre style=&quot;background-color: #2b2b2b ; color: #a9b7c6 ; font-family: &amp;#34;menlo&amp;#34; ; font-size: 10.5pt&quot;&gt;&lt;pre style=&quot;font-family: &amp;#34;menlo&amp;#34; ; font-size: 10.5pt&quot;&gt;&lt;pre style=&quot;font-family: &amp;#34;menlo&amp;#34; ; font-size: 10.5pt&quot;&gt;&lt;span style=&quot;color: #ffc66d&quot;&gt;luaY_parser&lt;/span&gt;&lt;/pre&gt;&lt;/pre&gt;&lt;/pre&gt;" style="html=1;verticalAlign=bottom;endArrow=block;" edge="1" parent="1">
          <mxGeometry width="80" relative="1" as="geometry">
            <mxPoint x="1060" y="430" as="sourcePoint" />
            <mxPoint x="1140" y="430" as="targetPoint" />
          </mxGeometry>
        </mxCell>
        <mxCell id="tPIpaodHMRVidKeAbp10-15" value="&lt;pre style=&quot;background-color: #2b2b2b ; color: #a9b7c6 ; font-family: &amp;#34;menlo&amp;#34; ; font-size: 10.5pt&quot;&gt;&lt;pre style=&quot;font-family: &amp;#34;menlo&amp;#34; ; font-size: 10.5pt&quot;&gt;&lt;pre style=&quot;font-family: &amp;#34;menlo&amp;#34; ; font-size: 10.5pt&quot;&gt;&lt;pre style=&quot;font-family: &amp;#34;menlo&amp;#34; ; font-size: 10.5pt&quot;&gt;&lt;pre style=&quot;font-family: &amp;#34;menlo&amp;#34; ; font-size: 10.5pt&quot;&gt;LexState&lt;/pre&gt;&lt;/pre&gt;&lt;/pre&gt;&lt;/pre&gt;&lt;/pre&gt;" style="shape=umlLifeline;perimeter=lifelinePerimeter;whiteSpace=wrap;html=1;container=1;collapsible=0;recursiveResize=0;outlineConnect=0;" vertex="1" parent="1">
          <mxGeometry x="1230" y="320" width="100" height="620" as="geometry" />
        </mxCell>
        <mxCell id="tPIpaodHMRVidKeAbp10-27" value="" style="html=1;points=[];perimeter=orthogonalPerimeter;" vertex="1" parent="tPIpaodHMRVidKeAbp10-15">
          <mxGeometry x="40" y="170" width="10" height="40" as="geometry" />
        </mxCell>
        <mxCell id="tPIpaodHMRVidKeAbp10-28" value="&lt;pre style=&quot;color: rgb(169 , 183 , 198) ; font-size: 10.5pt ; text-align: center ; background-color: rgb(43 , 43 , 43) ; font-family: &amp;#34;menlo&amp;#34;&quot;&gt;&lt;span style=&quot;color: rgb(255 , 198 , 109)&quot;&gt;statlist&lt;/span&gt;&lt;/pre&gt;" style="edgeStyle=orthogonalEdgeStyle;html=1;align=left;spacingLeft=2;endArrow=block;rounded=0;entryX=1;entryY=0;" edge="1" target="tPIpaodHMRVidKeAbp10-27" parent="tPIpaodHMRVidKeAbp10-15">
          <mxGeometry relative="1" as="geometry">
            <mxPoint x="45" y="150" as="sourcePoint" />
            <Array as="points">
              <mxPoint x="70" y="150" />
            </Array>
          </mxGeometry>
        </mxCell>
        <mxCell id="tPIpaodHMRVidKeAbp10-29" value="" style="html=1;points=[];perimeter=orthogonalPerimeter;" vertex="1" parent="tPIpaodHMRVidKeAbp10-15">
          <mxGeometry x="40" y="260" width="10" height="40" as="geometry" />
        </mxCell>
        <mxCell id="tPIpaodHMRVidKeAbp10-30" value="&lt;pre style=&quot;color: rgb(169 , 183 , 198) ; font-size: 10.5pt ; text-align: center ; background-color: rgb(43 , 43 , 43) ; font-family: &amp;#34;menlo&amp;#34;&quot;&gt;&lt;pre style=&quot;font-size: 10.5pt ; font-family: &amp;#34;menlo&amp;#34;&quot;&gt;statement&lt;/pre&gt;&lt;/pre&gt;" style="edgeStyle=orthogonalEdgeStyle;html=1;align=left;spacingLeft=2;endArrow=block;rounded=0;entryX=1;entryY=0;" edge="1" parent="tPIpaodHMRVidKeAbp10-15" target="tPIpaodHMRVidKeAbp10-29">
          <mxGeometry relative="1" as="geometry">
            <mxPoint x="44.999999999999545" y="240" as="sourcePoint" />
            <Array as="points">
              <mxPoint x="70" y="240" />
            </Array>
          </mxGeometry>
        </mxCell>
        <mxCell id="tPIpaodHMRVidKeAbp10-31" value="" style="html=1;points=[];perimeter=orthogonalPerimeter;" vertex="1" parent="tPIpaodHMRVidKeAbp10-15">
          <mxGeometry x="40" y="350" width="10" height="40" as="geometry" />
        </mxCell>
        <mxCell id="tPIpaodHMRVidKeAbp10-32" value="&lt;pre style=&quot;color: rgb(169 , 183 , 198) ; font-size: 10.5pt ; text-align: center ; background-color: rgb(43 , 43 , 43) ; font-family: &amp;#34;menlo&amp;#34;&quot;&gt;&lt;pre style=&quot;font-size: 10.5pt ; font-family: &amp;#34;menlo&amp;#34;&quot;&gt;&lt;pre style=&quot;font-family: &amp;#34;menlo&amp;#34; ; font-size: 10.5pt&quot;&gt;ifstat&lt;/pre&gt;&lt;/pre&gt;&lt;/pre&gt;" style="edgeStyle=orthogonalEdgeStyle;html=1;align=left;spacingLeft=2;endArrow=block;rounded=0;entryX=1;entryY=0;" edge="1" parent="tPIpaodHMRVidKeAbp10-15" target="tPIpaodHMRVidKeAbp10-31">
          <mxGeometry relative="1" as="geometry">
            <mxPoint x="44.999999999999545" y="330" as="sourcePoint" />
            <Array as="points">
              <mxPoint x="70" y="330" />
            </Array>
          </mxGeometry>
        </mxCell>
        <mxCell id="tPIpaodHMRVidKeAbp10-33" value="" style="html=1;points=[];perimeter=orthogonalPerimeter;" vertex="1" parent="tPIpaodHMRVidKeAbp10-15">
          <mxGeometry x="40" y="440" width="10" height="40" as="geometry" />
        </mxCell>
        <mxCell id="tPIpaodHMRVidKeAbp10-34" value="&lt;pre style=&quot;color: rgb(169 , 183 , 198) ; font-size: 10.5pt ; text-align: center ; background-color: rgb(43 , 43 , 43) ; font-family: &amp;#34;menlo&amp;#34;&quot;&gt;&lt;pre style=&quot;font-size: 10.5pt ; font-family: &amp;#34;menlo&amp;#34;&quot;&gt;&lt;pre style=&quot;font-family: &amp;#34;menlo&amp;#34; ; font-size: 10.5pt&quot;&gt;&lt;pre style=&quot;font-family: &amp;#34;menlo&amp;#34; ; font-size: 10.5pt&quot;&gt;whilestat&lt;/pre&gt;&lt;/pre&gt;&lt;/pre&gt;&lt;/pre&gt;" style="edgeStyle=orthogonalEdgeStyle;html=1;align=left;spacingLeft=2;endArrow=block;rounded=0;entryX=1;entryY=0;" edge="1" parent="tPIpaodHMRVidKeAbp10-15" target="tPIpaodHMRVidKeAbp10-33">
          <mxGeometry relative="1" as="geometry">
            <mxPoint x="44.999999999999545" y="420" as="sourcePoint" />
            <Array as="points">
              <mxPoint x="70" y="420" />
            </Array>
          </mxGeometry>
        </mxCell>
        <mxCell id="tPIpaodHMRVidKeAbp10-16" value="&lt;pre style=&quot;background-color: #2b2b2b ; color: #a9b7c6 ; font-family: &amp;#34;menlo&amp;#34; ; font-size: 10.5pt&quot;&gt;&lt;pre style=&quot;font-family: &amp;#34;menlo&amp;#34; ; font-size: 10.5pt&quot;&gt;&lt;pre style=&quot;font-family: &amp;#34;menlo&amp;#34; ; font-size: 10.5pt&quot;&gt;&lt;pre style=&quot;font-family: &amp;#34;menlo&amp;#34; ; font-size: 10.5pt&quot;&gt;&lt;span style=&quot;color: #ffc66d&quot;&gt;mainfunc&lt;/span&gt;&lt;/pre&gt;&lt;/pre&gt;&lt;/pre&gt;&lt;/pre&gt;" style="html=1;verticalAlign=bottom;endArrow=block;" edge="1" parent="1">
          <mxGeometry width="80" relative="1" as="geometry">
            <mxPoint x="1200" y="430" as="sourcePoint" />
            <mxPoint x="1280" y="430" as="targetPoint" />
          </mxGeometry>
        </mxCell>
        <mxCell id="tPIpaodHMRVidKeAbp10-35" value="" style="html=1;points=[];perimeter=orthogonalPerimeter;" vertex="1" parent="1">
          <mxGeometry x="1270" y="850" width="10" height="40" as="geometry" />
        </mxCell>
        <mxCell id="tPIpaodHMRVidKeAbp10-36" value="&lt;pre style=&quot;color: rgb(169 , 183 , 198) ; font-size: 10.5pt ; text-align: center ; background-color: rgb(43 , 43 , 43) ; font-family: &amp;#34;menlo&amp;#34;&quot;&gt;&lt;pre style=&quot;font-size: 10.5pt ; font-family: &amp;#34;menlo&amp;#34;&quot;&gt;&lt;pre style=&quot;font-family: &amp;#34;menlo&amp;#34; ; font-size: 10.5pt&quot;&gt;&lt;pre style=&quot;font-family: &amp;#34;menlo&amp;#34; ; font-size: 10.5pt&quot;&gt;&lt;pre style=&quot;font-family: &amp;#34;menlo&amp;#34; ; font-size: 10.5pt&quot;&gt;forstat&lt;/pre&gt;&lt;/pre&gt;&lt;/pre&gt;&lt;/pre&gt;&lt;/pre&gt;" style="edgeStyle=orthogonalEdgeStyle;html=1;align=left;spacingLeft=2;endArrow=block;rounded=0;entryX=1;entryY=0;" edge="1" parent="1" target="tPIpaodHMRVidKeAbp10-35">
          <mxGeometry relative="1" as="geometry">
            <mxPoint x="1274.9999999999995" y="830" as="sourcePoint" />
            <Array as="points">
              <mxPoint x="1300" y="830" />
            </Array>
          </mxGeometry>
        </mxCell>
        <mxCell id="tPIpaodHMRVidKeAbp10-37" value="&lt;pre style=&quot;background-color: #2b2b2b ; color: #a9b7c6 ; font-family: &amp;#34;menlo&amp;#34; ; font-size: 10.5pt&quot;&gt;&lt;pre style=&quot;font-family: &amp;#34;menlo&amp;#34; ; font-size: 10.5pt&quot;&gt;LuaAction&lt;/pre&gt;&lt;/pre&gt;" style="shape=umlLifeline;perimeter=lifelinePerimeter;whiteSpace=wrap;html=1;container=1;collapsible=0;recursiveResize=0;outlineConnect=0;" vertex="1" parent="1">
          <mxGeometry x="290" y="320" width="100" height="300" as="geometry" />
        </mxCell>
        <mxCell id="tPIpaodHMRVidKeAbp10-38" value="&lt;pre style=&quot;background-color: #2b2b2b ; color: #a9b7c6 ; font-family: &amp;#34;menlo&amp;#34; ; font-size: 10.5pt&quot;&gt;&lt;span style=&quot;color: #ffc66d&quot;&gt;run&lt;/span&gt;&lt;/pre&gt;" style="html=1;verticalAlign=bottom;endArrow=block;" edge="1" parent="1">
          <mxGeometry y="-20" width="80" relative="1" as="geometry">
            <mxPoint x="260" y="400" as="sourcePoint" />
            <mxPoint x="340" y="400" as="targetPoint" />
            <mxPoint as="offset" />
          </mxGeometry>
        </mxCell>
      </root>
    </mxGraphModel>
  </diagram>
</mxfile>
